HIERARCHY
ROOT Hips
{
    OFFSET 0.000000 0.000000 0.000000
    CHANNELS 6 Xposition Yposition Zposition Zrotation Xrotation Yrotation
    JOINT Spine
    {
        OFFSET -0.000000 8.079700 0.000000
        CHANNELS 3 Zrotation Xrotation Yrotation
        JOINT Spine1
        {
            OFFSET -0.000000 23.289207 0.000000
            CHANNELS 3 Zrotation Xrotation Yrotation
            JOINT Neck
            {
                OFFSET -0.000000 23.193563 2.108506
                CHANNELS 3 Zrotation Xrotation Yrotation
                JOINT Head
                {
                    OFFSET -0.000000 13.794610 -1.970658
                    CHANNELS 3 Zrotation Xrotation Yrotation
                    End Site
                    {
                        OFFSET -0.000000 24.633232 0.000000
                    }
                }
            }
            JOINT LeftShoulder
            {
                OFFSET 3.964071 21.437269 -0.109506
                CHANNELS 3 Zrotation Xrotation Yrotation
                JOINT LeftArm
                {
                    OFFSET 10.889085 0.000000 0.000000
                    CHANNELS 3 Zrotation Xrotation Yrotation
                    JOINT LeftForeArm
                    {
                        OFFSET 33.323662 0.000000 0.000000
                        CHANNELS 3 Zrotation Xrotation Yrotation
                        JOINT LeftHand
                        {
                            OFFSET 25.127829 0.000000 0.000000
                            CHANNELS 3 Zrotation Xrotation Yrotation
                            End Site
                            {
                                OFFSET 14.779941 0.000000 0.000000
                            }
                        }
                    }
                }
            }
            JOINT RightShoulder
            {
                OFFSET -3.907116 21.437269 -0.109506
                CHANNELS 3 Zrotation Xrotation Yrotation
                JOINT RightArm
                {
                    OFFSET -10.889085 0.000000 0.000000
                    CHANNELS 3 Zrotation Xrotation Yrotation
                    JOINT RightForeArm
                    {
                        OFFSET -33.323662 0.000000 0.000000
                        CHANNELS 3 Zrotation Xrotation Yrotation
                        JOINT RightHand
                        {
                            OFFSET -25.127829 0.000000 0.000000
                            CHANNELS 3 Zrotation Xrotation Yrotation
                            End Site
                            {
                                OFFSET -14.779941 0.000000 0.000000
                            }
                        }
                    }
                }
            }
        }
    }
    JOINT LeftUpLeg
    {
        OFFSET 9.853293 0.000000 0.000000
        CHANNELS 3 Zrotation Xrotation Yrotation
        JOINT LeftLeg
        {
            OFFSET -0.000000 -42.191887 0.000000
            CHANNELS 3 Zrotation Xrotation Yrotation
            JOINT LeftFoot
            {
                OFFSET -0.000000 -39.359688 0.000000
                CHANNELS 3 Zrotation Xrotation Yrotation
                JOINT LeftToeBase
                {
                    OFFSET -0.000000 -6.404640 14.779941
                    CHANNELS 3 Zrotation Xrotation Yrotation
                    End Site
                    {
                        OFFSET -0.000000 0.000000 3.941317
                    }
                }
            }
        }
    }
    JOINT RightUpLeg
    {
        OFFSET -9.853293 0.000000 0.000000
        CHANNELS 3 Zrotation Xrotation Yrotation
        JOINT RightLeg
        {
            OFFSET -0.000000 -42.191887 0.000000
            CHANNELS 3 Zrotation Xrotation Yrotation
            JOINT RightFoot
            {
                OFFSET -0.000000 -39.359688 0.000000
                CHANNELS 3 Zrotation Xrotation Yrotation
                JOINT RightToeBase
                {
                    OFFSET -0.000000 -6.404640 14.779941
                    CHANNELS 3 Zrotation Xrotation Yrotation
                    End Site
                    {
                        OFFSET -0.000000 0.000000 3.941317
                    }
                }
            }
        }
    }
}
MOTION
Frames:    12
Frame Time:    0.008333
1.936506    89.537735    -26.987461    -0.911578    -11.428244    -172.202454    3.294140    18.637384    -1.588407    -0.208908    16.004642    -1.018347    6.326906    37.547009    -3.063710    0.258770    29.148769    -1.857742    1.549821    9.745924    -11.372874    -27.502602    45.106056    -60.094578    11.367413    -37.531666    -147.124619    49.502388    8.662371    19.314821    3.533435    10.984797    20.461361    27.030884    47.121971    53.211620    -14.197194    -43.730534    143.002792    -41.581459    3.993893    -20.591379    -2.465810    -36.088112    -3.242181    0.511070    10.927349    5.394263    0.652266    1.339918    7.452510    0.000000    0.000000    0.000000    -8.773391    -19.786057    -4.313073    8.931702    35.311531    4.177798    -18.188904    -14.377362    -19.955990    0.000000    0.000000    0.000000    
1.775142    89.375320    -27.806812    -0.780786    -11.223619    -172.160263    3.179589    18.688786    -1.505296    -0.256974    15.947802    -0.945955    6.206806    37.687031    -3.184677    0.296018    29.082951    -2.004592    1.616260    9.805555    -11.620525    -27.686565    45.139603    -59.916500    11.352245    -37.463615    -147.074463    49.643623    8.563808    19.134729    3.595108    10.972295    20.398703    27.398529    47.289078    52.797943    -14.259629    -44.150436    143.060623    -41.317719    3.791322    -20.926483    -2.195768    -35.635242    -3.143986    0.462028    9.782849    5.673899    0.114332    0.896545    7.259617    0.000000    0.000000    0.000000    -8.761488    -19.193935    -3.177168    10.005116    35.487743    2.964429    -18.324240    -14.743445    -20.290394    0.000000    0.000000    0.000000    
1.588147    89.193665    -28.589811    -0.675718    -11.068338    -172.191116    3.020270    18.720615    -1.386045    -0.256315    15.856365    -0.852383    6.093854    37.866673    -3.284597    0.272654    28.864788    -2.117891    1.615324    9.789202    -11.893918    -27.940029    45.178383    -59.687244    11.329652    -37.436562    -147.118103    49.281921    8.552266    19.249750    3.606668    11.031275    20.175253    27.371336    47.252846    52.855213    -14.221685    -44.252586    143.149307    -40.707237    3.715876    -21.449371    -1.936350    -35.313244    -2.930685    0.322876    9.046098    5.653841    -0.489157    0.467673    7.550425    0.000000    0.000000    0.000000    -8.685660    -18.964220    -3.763288    9.573298    36.477360    3.645222    -18.093758    -15.193644    -20.242535    0.000000    0.000000    0.000000    
1.390316    88.988831    -29.425032    -0.567606    -10.838270    -172.127274    2.989951    18.629528    -1.430942    -0.374510    16.050201    -0.887599    5.739630    37.845688    -3.254612    0.284164    28.844425    -2.167201    1.583608    9.731506    -11.906654    -27.931154    45.140816    -59.726410    11.397232    -37.440407    -147.059586    49.109863    8.635472    19.135546    3.525526    10.896778    20.269447    27.898184    47.186863    52.345863    -13.907434    -43.869122    143.484421    -40.538605    3.738946    -21.861006    -1.833800    -34.979374    -2.527856    0.318169    8.908129    5.734837    -1.325982    -0.045887    7.372294    0.000000    0.000000    0.000000    -8.638015    -18.549690    -4.267255    9.294399    37.325512    3.962086    -17.923452    -15.710598    -20.097750    0.000000    0.000000    0.000000    
1.173199    88.756523    -30.224514    -0.455269    -10.697789    -172.094086    2.904997    18.644115    -1.384494    -0.441777    15.901230    -0.845792    5.633698    38.077999    -3.418912    0.237415    28.639484    -2.341191    1.560775    9.820150    -12.122635    -28.012081    45.118301    -59.613880    11.278165    -37.117760    -147.032394    50.189548    8.624201    18.839739    3.658728    10.934687    20.125866    27.829569    47.309891    52.302925    -13.162987    -43.370476    144.029114    -45.345142    3.285018    -21.091679    -1.721856    -34.876644    -1.997562    0.292035    9.263297    5.158369    -1.681488    0.030722    7.399925    0.000000    0.000000    0.000000    -8.699904    -18.315741    -4.436391    9.458926    38.306610    4.536179    -18.022890    -16.016741    -20.706533    0.000000    0.000000    0.000000    
0.968781    88.516861    -31.036163    -0.349804    -10.499252    -172.054260    2.883605    18.557873    -1.466783    -0.596852    16.053074    -0.911384    5.367885    38.008732    -3.383684    0.069796    28.700422    -2.348153    1.511230    9.716038    -12.054217    -28.058125    45.137699    -59.557106    10.783920    -36.464474    -147.305283    49.475372    8.247935    19.837345    3.628171    10.811244    20.299303    28.283747    47.147881    51.903469    -13.690385    -43.933414    143.829803    -40.133831    3.532021    -22.517357    -1.623964    -34.744999    -1.437194    0.286356    10.018724    4.807559    -1.444234    0.676845    6.589090    0.000000    0.000000    0.000000    -8.701582    -18.028835    -4.465345    9.633811    39.261692    4.476191    -17.959023    -16.452883    -20.831778    0.000000    0.000000    0.000000    
0.731192    88.260910    -31.804502    -0.273182    -10.386499    -171.990082    2.819053    18.486315    -1.507045    -0.706217    16.093475    -0.948312    5.227657    37.965576    -3.399101    0.034269    28.740042    -2.393598    1.531494    9.674079    -12.128015    -28.103065    45.153408    -59.572784    11.299103    -37.062962    -147.148727    49.702362    8.887625    18.951897    3.614104    10.779832    20.292864    28.247437    47.174129    51.935555    -13.834130    -44.121281    143.755508    -39.343784    3.535925    -22.611334    -1.700126    -34.796642    -0.824451    0.461635    11.198543    3.752182    -1.574684    1.216110    6.779978    0.000000    0.000000    0.000000    -8.822533    -17.960958    -4.871277    9.604013    40.467430    4.418143    -17.709787    -16.939064    -20.538034    0.000000    0.000000    0.000000    
0.502675    87.992134    -32.615639    -0.209788    -10.133150    -171.951691    2.767240    18.781519    -1.582537    -0.853499    15.739195    -1.006777    5.008620    38.155991    -3.408077    0.046867    28.721952    -2.442306    1.444970    9.836767    -12.059265    -27.998886    45.208698    -59.594822    11.214548    -36.881039    -147.067047    50.673988    8.764122    18.722719    3.781674    10.913760    20.161829    28.002544    47.377632    52.025787    -14.002951    -44.237339    143.563141    -39.755798    3.659793    -22.258709    -1.710565    -34.706192    -0.536908    0.515467    12.298580    3.151604    -1.739491    1.759768    7.029627    0.000000    0.000000    0.000000    -8.918828    -17.778931    -5.310736    9.525161    41.841297    4.834626    -17.624397    -17.296558    -20.658520    0.000000    0.000000    0.000000    
0.239657    87.721802    -33.397141    -0.187216    -9.900038    -171.930740    2.698163    18.918613    -1.653153    -1.004455    15.698576    -1.065030    4.801372    38.207668    -3.434612    0.063475    28.685324    -2.515369    1.579431    9.688525    -12.125002    -28.373440    45.264282    -59.432625    10.653786    -36.043076    -147.477921    49.672119    8.515079    19.788794    3.701267    10.866897    20.217049    27.935547    47.535442    52.137821    -14.101574    -44.448639    143.546051    -39.627476    3.721086    -22.409960    -1.718011    -34.676605    -0.694603    0.434017    13.236261    3.370129    -1.705595    2.438010    6.775275    0.000000    0.000000    0.000000    -9.132361    -17.753696    -5.767278    9.521899    43.356129    5.080940    -17.427080    -17.494190    -20.616491    0.000000    0.000000    0.000000    
-0.025460    87.450867    -34.176548    -0.141319    -9.675281    -171.913635    2.469452    18.836781    -1.644126    -0.868811    16.135273    -1.111278    4.425892    38.046398    -3.483084    0.274055    28.605974    -2.682132    1.590750    9.554738    -12.163563    -28.120274    45.246311    -59.742428    11.125533    -36.959381    -147.364410    49.603355    8.744827    19.200047    3.442789    10.634762    20.088051    27.681831    47.496880    52.551514    -14.093023    -44.567291    143.682800    -39.495979    3.869720    -22.872335    -1.711804    -34.720867    -0.763469    0.393213    14.103708    3.777378    -1.786690    3.276786    6.128433    0.000000    0.000000    0.000000    -9.342075    -17.710405    -5.777628    10.019986    44.737011    4.052616    -17.174692    -17.801435    -20.000229    0.000000    0.000000    0.000000    
-0.273411    87.199417    -34.925175    -0.116201    -9.434568    -171.855469    2.455950    19.142986    -1.729993    -1.082541    15.931698    -1.164304    4.278129    38.052704    -3.510287    0.394636    28.859446    -2.758033    1.542709    9.618340    -12.048469    -27.868902    45.311604    -59.948971    11.237146    -37.189892    -147.162170    49.313267    8.575229    19.254839    3.509238    10.699348    20.081919    27.806011    47.335484    52.383297    -13.960882    -44.006908    143.870758    -40.262177    4.456989    -22.425510    -1.610580    -34.748211    -1.065582    0.051285    15.058456    3.893268    -1.648939    3.871536    6.170248    0.000000    0.000000    0.000000    -9.562197    -17.765501    -6.392488    9.754662    46.470425    4.686069    -16.849323    -17.830122    -19.892147    0.000000    0.000000    0.000000    
-0.553762    86.949196    -35.676952    -0.192114    -9.165413    -171.866013    2.112032    19.283989    -1.589281    -0.981214    16.227222    -1.090535    4.439670    37.749836    -3.852059    0.412467    29.122803    -3.096493    1.668789    9.498284    -12.318965    -27.767305    45.231430    -60.266056    10.745571    -36.201405    -147.303223    50.095238    8.429409    19.577608    3.297945    10.532374    19.885443    27.666834    47.460449    52.675678    -13.952316    -44.583084    144.148666    -39.651398    4.344531    -23.606812    -1.625673    -34.951172    -1.109528    -0.136611    16.611109    4.111010    -1.619549    3.988371    5.962278    0.000000    0.000000    0.000000    -9.968419    -17.963354    -6.915802    9.727625    48.350868    4.568198    -16.280989    -17.643242    -19.153921    0.000000    0.000000    0.000000    
